<svg xmlns="http://www.w3.org/2000/svg" viewBox="0 0 267.4232 151.3223"><defs><style>.a{fill:#fff;}</style></defs><title>prj_ynov</title><rect class="a" x="71.2041" y="-44.5477" width="124.6659" height="241.0508" transform="translate(209.5147 -57.5594) rotate(90)"/><rect x="93.5172" y="-66.8609" width="80.0397" height="241.0508" transform="translate(187.2016 -79.8725) rotate(90)"/><path class="a" d="M109.4638,69.03l-1.2817,1.6a5.0731,5.0731,0,0,0-3.6258-1.6547,4.5814,4.5814,0,1,0,0,9.1618,5.3885,5.3885,0,0,0,3.6258-1.54l1.3,1.4478a7.3847,7.3847,0,0,1-5.0376,2.1389,6.584,6.584,0,1,1,.0737-13.16,7.1879,7.1879,0,0,1,4.9451,2.0072"/><path class="a" d="M115.7971,77.1525,114.5514,80.09h-2.2861L118.01,67.0772h2.2485L125.9476,80.09h-2.3425l-1.2457-2.9379Zm3.2718-7.7328-2.4538,5.78h4.9075Z"/><polygon class="a" points="141.743 80.09 141.723 70.367 137.616 78.733 136.185 78.733 132.077 70.367 132.077 80.09 130.013 80.09 130.013 67.078 132.616 67.078 136.911 75.721 141.185 67.078 143.768 67.078 143.768 80.09 141.743 80.09"/><path class="a" d="M154.73,67.0769c3.2717,0,5.1489,1.617,5.1489,4.4438,0,2.9379-1.8772,4.6459-5.1489,4.6459h-2.9928V80.09h-2.1937V67.0769Zm-2.9928,7.12h2.9c2.0072,0,3.1416-.8555,3.1416-2.6214,0-1.71-1.1344-2.5274-3.1416-2.5274h-2.9Z"/><path class="a" d="M175.4517,74.6988c0,3.4018-2.1372,5.4842-5.6518,5.4842s-5.6691-2.0824-5.6691-5.4842V67.0774h2.1937v7.6214a3.2488,3.2488,0,0,0,3.4957,3.5146,3.2065,3.2065,0,0,0,3.4394-3.5146V67.0774h2.1921Z"/><path class="a" d="M189.7605,68.3226l-.91,1.9336a7.7779,7.7779,0,0,0-3.8107-1.2081c-1.2833,0-2.12.4841-2.12,1.3569,0,2.844,7.0276,1.3194,7.0088,6.0044,0,2.3238-2.0448,3.7543-4.9091,3.7543A8.0094,8.0094,0,0,1,179.7025,78.1l.9511-1.8959a6.8524,6.8524,0,0,0,4.403,1.8959c1.5246,0,2.435-.5766,2.435-1.581,0-2.8972-7.0261-1.2817-7.0261-5.91,0-2.23,1.9148-3.6243,4.74-3.6243a8.4765,8.4765,0,0,1,4.555,1.3382"/><path class="a" d="M152.5035,25.6243A17.0724,17.0724,0,1,0,169.575,42.6959a17.07,17.07,0,0,0-17.0715-17.0716m-.0016,26.0139a8.9432,8.9432,0,1,1,8.944-8.9423,8.9431,8.9431,0,0,1-8.944,8.9423"/><path class="a" d="M114.8877,25.625A17.07,17.07,0,0,0,97.8162,42.6981V58.9548h8.1291l-.0015-16.2583a8.9432,8.9432,0,1,1,17.8863,0V58.9548h8.1276l.0031-16.2567A17.0715,17.0715,0,0,0,114.8877,25.625"/><polygon class="a" points="90.494 26.438 69.065 80.099 77.815 80.099 99.244 26.438 90.494 26.438"/><path class="a" d="M79.3872,43.3016a8.1135,8.1135,0,0,0-.6032-3.0789L73.281,26.437h-8.75L74.27,50.8244a8.0228,8.0228,0,0,0,5.1175-7.5228"/><polygon class="a" points="194.144 26.438 181.159 58.953 189.907 58.953 202.892 26.438 194.144 26.438"/><path class="a" d="M182.4287,40.223l-5.503-13.7857h-8.7512l9.74,24.3874a8.1089,8.1089,0,0,0,4.5142-10.6017"/><path d="M251.89,16.1657V135.79H15.5328V16.1657H251.89m2.5212-2.521h-241.4V138.3106h241.4V13.6447Z"/><path d="M41.9246,112.6753c0,3.6525-2.3059,5.7785-6.3273,5.7785H32.1016v4.704h-3.06V107.1689h6.5556C39.6187,107.1689,41.9246,109.1565,41.9246,112.6753Zm-2.9008.0922c0-1.9646-1.3028-2.9238-3.5856-2.9238H32.1016v5.9122h3.3366C37.721,115.7559,39.0238,114.7736,39.0238,112.7675Z"/><path d="M54.3832,123.1578l-2.7647-4.7271a4.5118,4.5118,0,0,1-.57.0231h-3.611v4.704h-3.06V107.1689h6.6709c4.1345,0,6.4864,1.9876,6.4864,5.5064a5.1959,5.1959,0,0,1-3.1751,5.1836l3.5187,5.2989Zm-6.9453-7.4019h3.611c2.2828,0,3.5626-.9823,3.5626-2.9884,0-1.9646-1.28-2.9238-3.5626-2.9238h-3.611Z"/><path d="M76.5957,115.1426a8.5272,8.5272,0,1,1-8.52-8.1813A8.2649,8.2649,0,0,1,76.5957,115.1426Zm-13.9113,0a5.4736,5.4736,0,0,0,5.4372,5.4787,5.458,5.458,0,1,0-5.4372-5.4787Z"/><path d="M81.4726,123.2961a6.1991,6.1991,0,0,1-4.9346-2.3981l1.4389-2.2828a4.9676,4.9676,0,0,0,3.4035,1.78,2.0321,2.0321,0,0,0,2.126-2.329v-8.1812H78v-2.7163h8.5893v10.9667C86.5893,121.4238,84.6247,123.2961,81.4726,123.2961Z"/><path d="M101.8311,107.1689v2.6748H93.1726v3.9476h7.7662v2.6748H93.1726v4.0215h8.9329v2.67H90.1127V107.1689Z"/><path d="M116.3927,107.1689v2.7163H111.412v13.2726h-3.0829V109.8852h-4.9807v-2.7163Z"/><path d="M135.7044,107.1689v2.6748h-8.6585v3.9476h7.7661v2.6748h-7.7661v4.0215h8.9329v2.67H123.986V107.1689Z"/><path d="M150.266,107.1689v2.7163h-4.9807v13.2726h-3.0829V109.8852h-4.9807v-2.7163Z"/><path d="M159.0629,120.6213c2.38,0,3.8831-1.48,3.8831-4.04v-9.4125h3.0622v9.4125c0,4.2013-2.6472,6.807-6.9453,6.807-4.3374,0-7.01-2.6057-7.01-6.807v-9.4125h3.0622v9.4125A3.7024,3.7024,0,0,0,159.0629,120.6213Z"/><path d="M184.52,115.1656c0,4.6579-3.5141,7.9922-8.4487,7.9922h-6.5348V107.1689h6.65C181.0286,107.1689,184.52,110.48,184.52,115.1656Zm-3.1267.0231a5.116,5.116,0,0,0-5.2528-5.322h-3.5418v10.5978h3.6525A5.0314,5.0314,0,0,0,181.393,115.1887Z"/><path d="M190.1737,107.1689v15.9889h-3.0576V107.1689Z"/><path d="M204.4332,119.7774h-7.8123l-1.4158,3.38h-3.1775l7.0145-15.9889h3.1729l6.9222,15.9889H205.849Zm-1.0976-2.6241L200.55,110.434l-2.8362,6.7193Z"/><path d="M225.1169,107.1689v15.9889h-2.9008L213.9934,112.15v11.0082H211V107.1689h2.9007L222.1469,118.2V107.1689Z"/><path d="M240.225,107.1689v2.7163h-4.9807v13.2726H232.159V109.8852h-4.976v-2.7163Z"/></svg>